<svg width="280" height="280" xmlns="http://www.w3.org/2000/svg" baseProfile="tiny">

 <g>
  <title>Layer 1</title>
  <path stroke="null" id="svg_2" fill="#fff" d="m45,2.54201l0,37.42012l0.72426,0c101.87929,0 184.92782,82.08284 185.77279,183.23788l36.33373,0c-0.96568,-121.55503 -100.43077,-220.29586 -222.83078,-220.658zm0,77.25444l0,37.42012l0.72426,0c59.02722,0 107.19054,47.43905 108.03551,105.98344l36.33373,0c-0.84497,-78.94438 -65.54556,-143.04142 -145.0935,-143.40355zm244.80001,46.59408l0,-75.44379c-9.29467,-12.67456 -20.76213,-27.15976 -32.22959,-38.3858c-12.79527,-12.67456 -27.76331,-24.14201 -42.24852,-34.16095l-80.15148,0c70.25326,25.2284 126.62486,79.42722 154.62959,147.99054z"/>
  <path stroke="null" id="svg_3" fill="#ffffff" d="m9.82444,157.49015l-0.77447,0l0,100.1648c0,7.22839 5.93761,13.16599 13.16599,13.16599l103.13361,0c-0.90355,-62.603 -52.27673,-113.33079 -115.52513,-113.33079zm0,-82.61014l-0.77447,0l0,42.59585c85.06264,0.38724 154.24863,68.79876 155.15218,153.34508l44.1448,0c-0.77447,-108.16766 -89.4513,-195.94093 -198.52251,-195.94093zm261.12551,182.90402l0,-90.48392c-29.94618,-73.31651 -90.22577,-131.27269 -165.22029,-158.25006l-83.5137,0c-7.22838,0 -13.16599,5.9376 -13.16599,13.16599l0,12.77875c130.88545,0.38724 237.37509,105.84425 238.14956,235.95523l10.58443,0c7.35746,-0.12908 13.16599,-5.9376 13.16599,-13.16599zm-34.46392,-212.20481c12.13336,12.13336 24.52489,27.49369 34.46392,41.04692l0,-64.53918a12.99819,12.99819 0 0 0 -13.03691,-13.03691l-66.47536,0c15.48941,10.7135 31.49512,22.97594 45.04835,36.52917z"/>
 </g>
</svg>